<?xml version="1.0" encoding="UTF-8" standalone="no"?>
<svg
   id="Layer_1"
   data-name="Layer 1"
   viewBox="0 0 24 24"
   version="1.1"
   sodipodi:docname="canonical-launchpad-logo.svg"
   width="24"
   height="24"
   inkscape:version="1.2.2 (732a01da63, 2022-12-09, custom)"
   xmlns:inkscape="http://www.inkscape.org/namespaces/inkscape"
   xmlns:sodipodi="http://sodipodi.sourceforge.net/DTD/sodipodi-0.dtd"
   xmlns="http://www.w3.org/2000/svg"
   xmlns:svg="http://www.w3.org/2000/svg">
  <sodipodi:namedview
     id="namedview69"
     pagecolor="#ffffff"
     bordercolor="#000000"
     borderopacity="0.25"
     inkscape:showpageshadow="2"
     inkscape:pageopacity="0.0"
     inkscape:pagecheckerboard="0"
     inkscape:deskcolor="#d1d1d1"
     showgrid="false"
     inkscape:lockguides="false"
     inkscape:zoom="19.099173"
     inkscape:cx="27.278668"
     inkscape:cy="19.660537"
     inkscape:window-width="3440"
     inkscape:window-height="1376"
     inkscape:window-x="0"
     inkscape:window-y="339"
     inkscape:window-maximized="1"
     inkscape:current-layer="Layer_1" />
  <defs
     id="defs20">
    <style
       id="style18">
      .cls-3 {
        fill: #000;
      }
    </style>
  </defs>
  <path
     class="cls-3"
     d="M 0.94351488,7.0881264 2.1678071,5.3510964 C 2.2808611,5.1929469 2.3525539,5.1890255 2.4766375,5.2452282 5.173389,6.7208543 7.5902637,6.9299776 10.084346,5.9065807 c 2.478915,-1.0181694 3.969299,-2.8192442 4.688983,-5.65809328 0.07583,-0.2561756 0.175095,-0.25486871 0.244031,-0.24571976 l 2.141132,0.44046577 c 0.361222,0.0862634 0.348813,0.18036879 0.339162,0.24964115 C 17.023379,4.0205498 14.591341,6.9443548 11.148708,8.3245686 7.6495481,9.7505279 3.8498296,9.4368434 0.97936127,7.4854612 0.92145556,7.4371034 0.78772025,7.3077062 0.94627229,7.0881271 Z M 11.613332,23.885956 l 2.194903,0.11371 c 0.369493,0.0066 0.379144,-0.08626 0.388795,-0.155536 0.474274,-3.327674 -1.053333,-6.758604 -3.985843,-8.953092 -2.9752511,-2.255917 -6.7280936,-2.909427 -10.04112768,-1.748793 -0.0689354,0.03267 -0.23438027,0.122859 -0.14338558,0.372501 l 0.69486855,1.984058 c 0.066178,0.180368 0.13235591,0.202588 0.26746993,0.179061 3.01247518,-0.743695 5.40177528,-0.338518 7.51947078,1.275652 2.105286,1.605022 3.038671,3.715859 2.936647,6.643586 0.0028,0.257483 0.09789,0.28101 0.166823,0.290159 z m 1.40766,-13.867489 c -0.09927,-0.01307 -0.198534,-0.019603 -0.295043,-0.019603 -0.445323,0 -0.865828,0.130702 -1.209127,0.379035 -0.419127,0.301922 -0.690732,0.756766 -0.765182,1.279574 -0.07307,0.508431 0.06342,1.010327 0.381902,1.411582 0.322617,0.406483 0.801029,0.669195 1.346997,0.739774 1.102966,0.141157 2.120453,-0.594694 2.269352,-1.640311 0.151657,-1.062608 -0.608009,-2.008891 -1.730277,-2.151356 z M 23.984473,6.5248007 22.965608,4.6753665 C 22.820844,4.3708307 22.705032,4.4008922 22.585085,4.4387957 c -3.257886,1.331854 -5.506558,4.260887 -6.015301,7.8382033 -0.510121,3.57993 0.841012,6.972955 3.613593,9.074644 0.06204,0.05228 0.124083,0.07058 0.19164,0.06536 0.07859,-0.0066 0.15993,-0.04837 0.210942,-0.108476 l 1.432477,-1.628547 c 0.132356,-0.156843 0.07583,-0.237879 0.0069,-0.305844 -2.245915,-2.096462 -3.086926,-4.179853 -2.721569,-6.748148 0.368115,-2.582673 1.804728,-4.4334142 4.520782,-5.8266984 0.215078,-0.1228592 0.180611,-0.2287288 0.15993,-0.2757811 z"
     id="path66"
     style="display:inline;stroke-width:0.134239" />
</svg>
